<svg fill="none" height="97" viewBox="0 0 380 97" width="380" xmlns="http://www.w3.org/2000/svg">
  <path d="m179.667 2.8c-6.8 1.73334-13.467 2.53334-18.267 2.26667l-7.6-.53333 2.667 3.6c1.466 1.99996 3.6 5.99996 4.666 8.66666 2 4.8 2 5.3333-3.6 21.0667-3.066 8.9333-5.733 16.2666-5.866 16.5333-.134.1333-14.534-3.6-32.134-8.2667-17.466-4.6666-43.8663-11.6-58.533-15.4666-14.6667-3.8667-34.1333-8.9334-43.2-11.4667-9.2-2.4-16.8-4.2667-17.066663-4-.266666.2667 3.333333 6.8 7.866663 14.6667 6.4 10.9333 9.2 14.4 11.7333 14.9333 2.4.5333 4.9334 3.4667 8.8 9.6 3.3334 5.6 6.4 9.0667 8.1334 9.3333 1.6.2667 5.2 4 8.9333 9.4667l6.1333 8.9333 33.7334 3.6c18.4003 2 49.3333 5.2 68.6663 7.2l34.934 3.6 37.733-4.4c20.667-2.4 44.267-5.2 52.267-6.1333 8.133-.9333 21.6-2.5333 30-3.4667l15.333-1.6 8.667-8.4c6.133-6 9.733-8.5333 12.133-8.5333 2.8 0 3.867-1.2 6.533-7.6 3.6-8.8 6.8-12.4 11.067-12.4 2.533 0 4.133-2.4 10-14 3.733-7.7333 6.533-14 6.133-14s-20.666 5.0667-44.933 11.2c-24.4 6.2667-57.733 14.6667-74.133 18.8s-30.667 7.8667-31.6 8.2667c-1.2.4-2.4-.8-3.2-3.0667-1.734-4.4.133-6.4 7.866-8.5333 4-1.0667 5.067-.8 7.734 1.6 1.733 1.6 3.466 2.4 4 1.8666.666-.5333 1.066-5.8666 1.066-11.7333 0-10-.266-10.8-3.733-13.8667-2-1.7333-4.933-3.2-6.267-3.2-3.466 0-6.666-3.6-6.666-7.46663 0-8.66667-28.4-12.66667-50-7.06667zm35.333 4c6.267 1.33334 9.6 4 7.467 6.1333-.4.4-4.267 0-8.534-.9333-8.8-1.7333-19.333-.4-24.666 3.3333-2.667 1.8667-2.534 2 3.466 1.2 6-.9333 6.267-.8 6.267 2.5334 0 3.4666 5.333 8.9333 8.8 8.9333 3.067 0 2.133 1.6-6.8 12.2667-4.8 5.6-8.667 10.5333-8.667 10.8 0 .2666 4-1.6 9.067-4 4.933-2.4 9.6-4.4 10.267-4.4.8 0 3.333 4 5.733 8.8l4.4 8.9333-4.267 4.4c-2.4 2.5333-4.933 4.5333-5.733 4.5333s-3.333-2.2666-5.733-4.9333l-4.267-5.0667-4.8 5.7334c-2.667 3.0666-5.333 5.6-6 5.6s-2.533-2.2667-4.267-4.9334c-1.733-2.6666-3.466-5.4666-4-6.2666-.533-.8-3.2 1.0666-6.666 4.9333l-5.734 6.2667-7.2-5.6c-8-6-7.866-5.4667.934 6l5.866 7.8666 5.734-5.6 5.6-5.6 5.2 6.2667 5.066 6.2667 5.6-6.2667 5.467-6.4 5.067 5.6 5.066 5.6 4.8-8.9333 4.8-9.0667 14-3.6c61.734-15.6 116.934-29.7333 125.067-32 5.467-1.4667 10.133-2.4 10.533-2.1333 1.2 1.2-7.6 16.8-9.866 17.4666-3.067.9334-61.867 12-74.8 14.1334-16.934 2.8-9.6 2.6666 13.866-.1334 12.4-1.4666 28.934-3.4666 36.8-4.2666l14.134-1.6-2.667 5.3333c-1.467 2.9333-2.8 5.4667-2.933 5.6-.4.5333-24.934 4.1333-56.534 8.4-15.733 2-28.8 4.1333-29.333 4.6667-.4.4 1.6.4 4.4 0 8.133-1.0667 60.8-6 65.333-6h4l-4.666 4.6666-4.667 4.5334-52 6.1333c-28.533 3.3333-58.8 6.8-67.067 7.7333-14.666 1.7334-16.266 1.7334-82.133-4.9333l-67.3333-6.8-4-5.3333c-4.6667-6.1334-5.0667-7.3334-1.8667-6.5334 3.8667.9334 55.333 5.8667 59.067 5.7334 3.066-.1334-16.1337-3.2-55.6003-8.6667l-16.4-2.2667-4-6.1333c-2.1334-3.3333-3.4667-6.2667-2.8-6.5333.5333-.1334 15.8666 2.1333 34.1333 5.0666 18.1333 3.0667 33.2 5.2 33.4667 4.9334.4-.2667-3.2-1.3334-7.7334-2.1334-4.6666-.9333-22-4.6666-38.6666-8.2666-16.6667-3.6-30.5334-6.5334-30.9334-6.5334-.8 0-12.79996-18.2666-12.79996-19.4666 0-.4.53333-.4 1.2 0 .66666.5333 9.19996 2.9333 19.06666 5.3333 32 8.2667 69.2 17.8667 97.733 25.3333 15.467 4 28.4 6.9334 28.8 6.4 1.734-2 13.2-34 13.2-36.9333 0-1.7333-.533-4.6667-1.2-6.4-1.2-3.2-.933-3.3333 6.267-4.9333 4.133-.93336 10.933-2.40003 14.933-3.33336 9.334-2.26667 18-2.4 26.667-.53334zm-2.267 7.4667c-2.933 1.0666-2 5.7333 1.067 5.7333 2.267 0 2.667-.6667 2.267-3.2-.534-2.2667-.134-3.0667 1.2-2.5333 3.866 1.4666-.134 9.7333-4.667 9.7333-2.8 0-6.933-4-6.933-6.6667 0-3.0666 1.2-4 5.2-3.8666 1.866 0 2.666.4 1.866.8zm20.934 7.0666c3.866 0 7.866 4.4 8.8 9.6.933 5.7334.933 5.7334-4.267 3.0667-5.067-2.6667-12.933-2.4-21.467.5333-3.866 1.3334-7.066 1.8667-7.066 1.2 0-2.5333 8.8-11.7333 11.066-11.7333 1.334 0 2-.5333 1.6-1.3333-.4-.6667-.133-2.5334.667-4l1.467-2.8 3.466 2.8c1.867 1.4666 4.534 2.6666 5.734 2.6666zm1.333 17.3334c0 .6666-1.2 1.3333-2.667 1.3333-1.6 0-4.533.9333-6.8 2-3.866 2.1333-6.533 1.7333-6.533-.8 0-.6667 1.333-1.8667 3.067-2.5333 4-1.6 12.933-1.6 12.933 0z" fill="currentColor"/>
</svg>
